<svg width="62" height="62" viewBox="0 0 62 62" fill="none" xmlns="http://www.w3.org/2000/svg">
<circle cx="31" cy="31" r="31" fill="#C4C4C4"/>
<path d="M16.52 25.17H21.98V44H16.52V25.17ZM19.25 22.545C18.2467 22.545 17.43 22.2533 16.8 21.67C16.17 21.0867 15.855 20.3633 15.855 19.5C15.855 18.6367 16.17 17.9133 16.8 17.33C17.43 16.7467 18.2467 16.455 19.25 16.455C20.2533 16.455 21.07 16.735 21.7 17.295C22.33 17.855 22.645 18.555 22.645 19.395C22.645 20.305 22.33 21.0633 21.7 21.67C21.07 22.2533 20.2533 22.545 19.25 22.545ZM38.4923 24.89C40.8257 24.89 42.704 25.59 44.1273 26.99C45.574 28.39 46.2973 30.4667 46.2973 33.22V44H40.8373V34.06C40.8373 32.5667 40.5107 31.4583 39.8573 30.735C39.204 29.9883 38.259 29.615 37.0223 29.615C35.6457 29.615 34.549 30.0467 33.7323 30.91C32.9157 31.75 32.5073 33.01 32.5073 34.69V44H27.0473V25.17H32.2623V27.375C32.9857 26.5817 33.884 25.975 34.9573 25.555C36.0307 25.1117 37.209 24.89 38.4923 24.89Z" fill="#C4C4C4"/>
<path d="M14 47.5H48.7123V49.25H14V47.5Z" fill="#C4C4C4"/>
<a href="https://www.linkedin.com/in/karim-adel-7164631b2/">
<rect fill="black" fill-opacity="0" y="0.1675" width="34.7123" height="42.665"/>
</a>
<path d="M19.8897 23.3953C21.803 23.3953 23.3541 21.8442 23.3541 19.9309C23.3541 18.0176 21.803 16.4666 19.8897 16.4666C17.9764 16.4666 16.4254 18.0176 16.4254 19.9309C16.4254 21.8442 17.9764 23.3953 19.8897 23.3953Z" fill="black"/>
<path d="M26.6252 26.0204V45.2405H32.5928V35.7357C32.5928 33.2277 33.0646 30.7989 36.1743 30.7989C39.2412 30.7989 39.2792 33.6663 39.2792 35.8941V45.2421H45.25V34.7018C45.25 29.5243 44.1353 25.5454 38.0838 25.5454C35.1784 25.5454 33.2309 27.1398 32.4345 28.6487H32.3537V26.0204H26.6252ZM16.9004 26.0204H22.8775V45.2405H16.9004V26.0204Z" fill="black"/>
</svg>
