<svg width="62" height="62" viewBox="0 0 62 62" fill="none" xmlns="http://www.w3.org/2000/svg">
<path d="M62 31C62 48.1208 48.1208 62 31 62C13.8792 62 0 48.1208 0 31C0 13.8792 13.8792 0 31 0C48.1208 0 62 13.8792 62 31Z" fill="#C4C4C4"/>
<path d="M44.3054 20.3236C45.7462 22.0526 46.4651 24.0698 46.4651 26.3751C46.4651 34.7303 41.7119 37.1798 37.2453 37.9002C37.8217 38.9088 37.9657 40.0614 37.9657 41.2141V47.1199C37.9657 47.8403 37.5335 48.2726 36.9572 48.2726C36.8052 48.2747 36.6544 48.2464 36.5135 48.1892C36.3727 48.132 36.2448 48.0472 36.1374 47.9397C36.0299 47.8323 35.9451 47.7043 35.8879 47.5635C35.8307 47.4227 35.8024 47.2719 35.8045 47.1199V41.2141C35.8804 40.6103 35.8159 39.9971 35.6159 39.4223C35.416 38.8475 35.0861 38.3266 34.6518 37.9002L35.3722 36.0271C39.8388 35.4508 44.4495 34.0099 44.4495 26.231C44.4495 24.3579 43.7291 22.6289 42.4323 21.1881L42.1442 20.037C42.6921 18.6564 42.7425 17.1282 42.2867 15.7145C41.5678 15.857 40.127 16.1467 37.6792 17.8757L36.8131 18.0182C33.4101 17.1542 29.8452 17.1542 26.4422 18.0182L25.5762 17.8757C22.9858 16.2908 21.545 15.8586 20.823 15.8586C20.3907 17.2994 20.3907 18.8827 20.9655 20.1811L20.6789 21.3322C19.2381 22.773 18.5177 24.6461 18.5177 26.3751C18.5177 34.0099 22.8402 35.5948 27.5933 36.1712L28.1697 38.0443C27.3052 38.9088 26.8729 40.0614 27.017 41.2141V47.264C27.0191 47.416 26.9908 47.5668 26.9336 47.7076C26.8764 47.8484 26.7916 47.9763 26.6841 48.0838C26.5767 48.1913 26.4488 48.2761 26.3079 48.3333C26.1671 48.3904 26.0163 48.4188 25.8643 48.4167C25.7124 48.4188 25.5615 48.3904 25.4207 48.3333C25.2799 48.2761 25.152 48.1913 25.0445 48.0838C24.9371 47.9763 24.8522 47.8484 24.7951 47.7076C24.7379 47.5668 24.7095 47.416 24.7117 47.264V43.9517C19.9585 44.9603 18.0854 42.5108 16.6446 40.6393C15.9242 39.7748 15.3478 39.0544 14.6274 38.9103C14.4849 38.7663 14.0511 38.1899 14.1952 37.6136C14.3392 37.0373 14.9156 36.605 15.4935 36.8932C16.9343 37.1813 17.7972 38.334 18.6602 39.3426C19.9585 41.0716 21.2552 42.6549 25.1439 41.792V41.2157C25.0014 40.063 25.288 38.9103 25.8643 37.9018C21.5418 37.0373 16.5005 34.5878 16.5005 26.3767C16.5005 24.0713 17.2209 22.0542 18.6617 20.3252C18.2295 18.3096 18.3736 16.1483 19.094 14.4193L19.8144 13.843C20.1026 13.6989 22.1197 13.2667 26.295 15.8586C29.7472 14.9942 33.3593 14.9942 36.8115 15.8586C40.8474 13.121 43.0087 13.5517 43.2968 13.6973L44.0172 14.2737C44.7377 16.2908 44.8817 18.308 44.3054 20.3236Z" fill="black"/>
</svg>
